<?xml version="1.0" encoding="UTF-8" standalone="no"?>
<svg width="32px" height="32px" viewBox="0 0 32 32" version="1.1" xmlns="http://www.w3.org/2000/svg" xmlns:xlink="http://www.w3.org/1999/xlink">
    <!-- Generator: Sketch 3.7.1 (28215) - http://www.bohemiancoding.com/sketch -->
    <title>Backup</title>
    <desc>Created with Sketch.</desc>
    <defs></defs>
    <g id="Page-1" stroke="none" stroke-width="1" fill="none" fill-rule="evenodd">
        <g id="Icons" transform="translate(-40.000000, -622.000000)" fill="#2E4063">
            <path d="M56.2964412,626 C62.9238582,626 68.2964412,631.372583 68.2964412,638 C68.2964412,644.627417 62.9238582,650 56.2964412,650 C54.5872113,650 51.9566904,649.142061 51.9566904,649.142061 C51.6988226,649.06282 51.6263363,648.82469 51.8025494,648.6003 L52.3674334,647.880973 C52.5401714,647.661008 52.8978046,647.553151 53.1591798,647.63427 C53.1591798,647.63427 55.1396382,648.309114 56.5032533,648.309114 C61.6012663,648.309114 65.7340225,644.176358 65.7340225,639.078345 C65.7340225,633.980331 61.6012663,629.847575 56.5032533,629.847575 C53.3931259,629.847575 50.642249,631.38571 48.9698202,633.742781 L51.5601642,635.238316 L44.4008701,638.908852 L44,630.873454 L45.9142196,631.978629 C47.9921008,628.403609 51.8635745,626 56.2964412,626 Z M55.9216691,633.754411 L55.5523723,639.662229 C55.5523723,639.662229 53.8765836,641.075231 52.9872947,641.96452 C52.9872947,641.96452 52.6324163,642.45149 52.9812483,642.892878 C53.3296151,643.334267 53.8119334,643.169618 53.8119334,643.169618 C54.9895901,642.564511 56.8509574,641.364529 57.5667605,640.897094 C57.7486183,640.778027 57.8518725,640.570588 57.8383843,640.353382 L57.4249022,633.767435 C57.4249022,633.767435 57.2667651,633.279535 56.6602626,633.279535 C56.0537601,633.279535 55.9216691,633.754411 55.9216691,633.754411 L55.9216691,633.754411 Z" id="Backup"></path>
        </g>
    </g>
</svg>