<?xml version="1.0" encoding="UTF-8" standalone="no"?>
<svg width="32px" height="32px" viewBox="0 0 32 32" version="1.1" xmlns="http://www.w3.org/2000/svg" xmlns:xlink="http://www.w3.org/1999/xlink">
    <!-- Generator: Sketch 3.7.1 (28215) - http://www.bohemiancoding.com/sketch -->
    <title>Book</title>
    <desc>Created with Sketch.</desc>
    <defs></defs>
    <g id="Page-1" stroke="none" stroke-width="1" fill="none" fill-rule="evenodd">
        <g id="Icons" transform="translate(-456.000000, -674.000000)" fill="#2E4063">
            <path d="M481.10558,695.848579 L481.11042,695.848579 C481.44416,695.848579 481.7152,695.606071 481.7152,695.306978 L481.7152,685.114143 L482.6216,685.114143 C482.82972,685.114143 483,685.266548 483,685.452668 L483,696.66108 C483,696.847594 482.82994,697 482.6216,697 L473.38754,697 C476.7619,695.905953 480.27046,695.84779 480.97094,695.84779 C481.0574,695.84779 481.10448,695.848579 481.10558,695.848579 L481.10558,695.848579 Z M463.61536,683.03291 C463.41274,683.03291 463.24686,683.181372 463.24686,683.363155 L463.24686,694.280163 C463.24686,694.461945 463.41318,694.610407 463.61536,694.610407 C463.61536,694.610407 467.70406,694.531149 471.52128,695.846805 L471.52128,684.205821 C468.90262,682.691821 463.61536,683.03291 463.61536,683.03291 L463.61536,683.03291 Z M480.76128,683.363155 L480.76128,694.280163 C480.76128,694.461945 480.59496,694.610407 480.39278,694.610407 C480.39278,694.610407 476.30408,694.531149 472.48686,695.846805 L472.48686,684.205821 C475.10552,682.691821 480.39278,683.03291 480.39278,683.03291 C480.5954,683.03291 480.76128,683.181372 480.76128,683.363155 L480.76128,683.363155 Z M462.89442,695.848579 L462.88958,695.848579 C462.55606,695.848579 462.2848,695.606071 462.2848,695.306978 L462.2848,685.114143 L461.37818,685.114143 C461.17006,685.114143 461,685.266548 461,685.452668 L461,696.66108 C461,696.847594 461.17006,697 461.37818,697 L470.61268,697 C467.23832,695.905953 463.72954,695.84779 463.02928,695.84779 C462.9426,695.84779 462.89574,695.848579 462.89442,695.848579 L462.89442,695.848579 Z" id="Book"></path>
        </g>
    </g>
</svg>