<?xml version="1.0" encoding="UTF-8" standalone="no"?>
<svg width="32px" height="32px" viewBox="0 0 32 32" version="1.1" xmlns="http://www.w3.org/2000/svg" xmlns:xlink="http://www.w3.org/1999/xlink">
    <!-- Generator: Sketch 3.8.1 (29687) - http://www.bohemiancoding.com/sketch -->
    <title>Bug</title>
    <desc>Created with Sketch.</desc>
    <defs></defs>
    <g id="Page-1" stroke="none" stroke-width="1" fill="none" fill-rule="evenodd">
        <g id="Artboard-4" transform="translate(-176.000000, -280.000000)" fill="#2E4063">
            <path d="M195.13118,286.867231 C195.946437,287.681959 196.45076,288.807969 196.45076,290.051808 L187.45076,290.051808 C187.45076,288.799381 187.962071,287.666416 188.78727,286.8504 L186.852476,284.850023 C186.433548,284.416894 186.444945,283.726054 186.877933,283.30699 C187.31092,282.887925 188.001535,282.899326 188.420463,283.332455 L190.72823,285.718448 C191.116958,285.608929 191.527019,285.550341 191.95076,285.550341 C192.380397,285.550341 192.795972,285.610571 193.189507,285.72305 L195.592157,283.319617 C196.018173,282.893462 196.708881,282.893462 197.134897,283.319617 C197.560913,283.745772 197.560913,284.436705 197.134897,284.86286 L195.13118,286.867231 Z M199.464976,304.787144 C198.027982,307.083404 195.672231,308.68234 192.95076,309 L192.95076,291.552297 L196.806627,291.552297 C197.719663,292.171265 198.519841,292.959681 199.167338,293.875493 L200.874579,293.875493 C201.004065,293.875493 201.167991,293.773234 201.231034,293.64709 L201.937842,292.232849 C202.212448,291.696418 202.869781,291.484239 203.406038,291.758934 C203.942294,292.033628 204.154404,292.691176 203.879799,293.227608 L202.734907,295.46411 C202.548297,295.828647 202.173348,296.057968 201.763929,296.057968 L200.321853,296.057968 C200.581125,296.749373 200.76579,297.480555 200.865363,298.240444 L202.908821,298.240444 C203.511298,298.240444 203.999703,298.729008 203.999703,299.331681 C203.999703,299.934355 203.511298,300.422919 202.908821,300.422919 L200.913719,300.422919 C200.848839,301.179497 200.699978,301.910481 200.477057,302.605395 L201.763929,302.605395 C202.225461,302.605395 202.637049,302.895936 202.791725,303.330919 L203.936617,306.550605 C204.138529,307.118426 203.842051,307.742472 203.274415,307.94445 C202.706779,308.146427 202.082936,307.849853 201.881024,307.282032 L201.075368,305.01635 C201.031597,304.893255 200.881949,304.786087 200.744393,304.78619 L199.464976,304.787144 Z M184.436998,304.78787 C185.874034,307.083741 188.229575,308.682373 190.95076,309 L190.95076,291.552297 L187.094892,291.552297 C186.18015,292.172422 185.378687,292.962628 184.730552,293.88063 L183.089258,293.89321 C182.948141,293.894292 182.784342,293.78861 182.729052,293.669352 L182.080813,292.27112 C181.827337,291.724381 181.178779,291.486711 180.632218,291.740269 C180.085656,291.993828 179.848064,292.642597 180.101539,293.189337 L181.138412,295.425839 C181.317125,295.811317 181.703273,296.057968 182.128049,296.057968 L183.579666,296.057968 C183.320394,296.749373 183.13573,297.480555 183.036156,298.240444 L181.091176,298.240444 C180.488699,298.240444 180.000294,298.729008 180.000294,299.331681 C180.000294,299.934355 180.488699,300.422919 181.091176,300.422919 L182.9878,300.422919 C183.052681,301.179497 183.201542,301.910481 183.424462,302.605395 L182.128049,302.605395 C181.654441,302.605395 181.234937,302.911087 181.089715,303.362028 L180.052843,306.581714 C179.868106,307.155357 180.183225,307.770193 180.756681,307.95499 C181.330136,308.139787 181.944773,307.824566 182.12951,307.250923 L182.850168,305.033042 C182.894165,304.897637 183.036001,304.78787 183.175781,304.78787 L184.436998,304.78787 Z" id="Bug"></path>
        </g>
    </g>
</svg>