<?xml version="1.0" encoding="UTF-8" standalone="no"?>
<svg width="32px" height="32px" viewBox="0 0 32 32" version="1.1" xmlns="http://www.w3.org/2000/svg" xmlns:xlink="http://www.w3.org/1999/xlink">
    <!-- Generator: Sketch 39.1 (31720) - http://www.bohemiancoding.com/sketch -->
    <title>ChevronCircleUp</title>
    <desc>Created with Sketch.</desc>
    <defs></defs>
    <g id="Page-1" stroke="none" stroke-width="1" fill="none" fill-rule="evenodd">
        <g id="Artboard-6" transform="translate(-176.000000, -20.000000)" fill="#2E4063">
            <path d="M190.707107,37.2928932 L198.708604,37.2928932 C199.260062,37.2928932 199.707107,37.7362464 199.707107,38.3022621 L199.707107,40.2835243 C199.707107,40.8409834 199.259617,41.2928932 198.708604,41.2928932 L187.705609,41.2928932 C187.431645,41.2928932 187.183451,41.183469 187.003039,41.0039422 C186.818625,40.816287 186.707107,40.5681122 186.707107,40.2943909 L186.707107,29.2913955 C186.707107,28.7399379 187.15046,28.2928932 187.716476,28.2928932 L189.697738,28.2928932 C190.255197,28.2928932 190.707107,28.7403826 190.707107,29.2913955 L190.707107,37.2928932 Z M192,49 C199.179702,49 205,43.1797017 205,36 C205,28.8202983 199.179702,23 192,23 C184.820298,23 179,28.8202983 179,36 C179,43.1797017 184.820298,49 192,49 Z" id="ChevronCircleUp" transform="translate(192.000000, 36.000000) rotate(135.000000) translate(-192.000000, -36.000000) "></path>
        </g>
    </g>
</svg>