<?xml version="1.0" encoding="UTF-8" standalone="no"?>
<svg width="32px" height="32px" viewBox="0 0 32 32" version="1.1" xmlns="http://www.w3.org/2000/svg" xmlns:xlink="http://www.w3.org/1999/xlink">
    <!-- Generator: Sketch 39.1 (31720) - http://www.bohemiancoding.com/sketch -->
    <title>ChevronCircleDown</title>
    <desc>Created with Sketch.</desc>
    <defs></defs>
    <g id="Page-1" stroke="none" stroke-width="1" fill="none" fill-rule="evenodd">
        <g id="Artboard-6" transform="translate(-228.000000, -20.000000)" fill="#2E4063">
            <path d="M242.707107,37.2928932 L250.708604,37.2928932 C251.260062,37.2928932 251.707107,37.7362464 251.707107,38.3022621 L251.707107,40.2835243 C251.707107,40.8409834 251.259617,41.2928932 250.708604,41.2928932 L239.705609,41.2928932 C239.431645,41.2928932 239.183451,41.183469 239.003039,41.0039422 C238.818625,40.816287 238.707107,40.5681122 238.707107,40.2943909 L238.707107,29.2913955 C238.707107,28.7399379 239.15046,28.2928932 239.716476,28.2928932 L241.697738,28.2928932 C242.255197,28.2928932 242.707107,28.7403826 242.707107,29.2913955 L242.707107,37.2928932 Z M244,49 C251.179702,49 257,43.1797017 257,36 C257,28.8202983 251.179702,23 244,23 C236.820298,23 231,28.8202983 231,36 C231,43.1797017 236.820298,49 244,49 Z" id="ChevronCircleDown" transform="translate(244.000000, 36.000000) rotate(-45.000000) translate(-244.000000, -36.000000) "></path>
        </g>
    </g>
</svg>