<?xml version="1.0" encoding="UTF-8" standalone="no"?>
<svg width="32px" height="32px" viewBox="0 0 32 32" version="1.1" xmlns="http://www.w3.org/2000/svg" xmlns:xlink="http://www.w3.org/1999/xlink">
    <!-- Generator: Sketch 3.7.1 (28215) - http://www.bohemiancoding.com/sketch -->
    <title>CircleClose</title>
    <desc>Created with Sketch.</desc>
    <defs></defs>
    <g id="Page-1" stroke="none" stroke-width="1" fill="none" fill-rule="evenodd">
        <g id="Icons" transform="translate(-40.000000, -934.000000)" fill="#2E4063">
            <path d="M58.8284271,950 L62.3633447,946.465082 C62.7566663,946.071761 62.7515193,945.437811 62.3573362,945.043628 L60.9563723,943.642664 C60.5561387,943.24243 59.9257822,943.245791 59.5349176,943.636655 L56,947.171573 L52.4650824,943.636655 C52.0717608,943.243334 51.4378108,943.248481 51.0436277,943.642664 L49.6426638,945.043628 C49.2424302,945.443861 49.2457906,946.074218 49.6366553,946.465082 L53.1715729,950 L49.6366553,953.534918 C49.2433337,953.928239 49.2484807,954.562189 49.6426638,954.956372 L51.0436277,956.357336 C51.4438613,956.75757 52.0742178,956.754209 52.4650824,956.363345 L56,952.828427 L59.5349176,956.363345 C59.9282392,956.756666 60.5621892,956.751519 60.9563723,956.357336 L62.3573362,954.956372 C62.7575698,954.556139 62.7542094,953.925782 62.3633447,953.534918 L58.8284271,950 L58.8284271,950 Z M56,963 C63.1797017,963 69,957.179702 69,950 C69,942.820298 63.1797017,937 56,937 C48.8202983,937 43,942.820298 43,950 C43,957.179702 48.8202983,963 56,963 L56,963 Z M56,961 C62.0751322,961 67,956.075132 67,950 C67,943.924868 62.0751322,939 56,939 C49.9248678,939 45,943.924868 45,950 C45,956.075132 49.9248678,961 56,961 L56,961 Z" id="CircleClose"></path>
        </g>
    </g>
</svg>