<?xml version="1.0" encoding="UTF-8" standalone="no"?>
<svg width="32px" height="32px" viewBox="0 0 32 32" version="1.1" xmlns="http://www.w3.org/2000/svg" xmlns:xlink="http://www.w3.org/1999/xlink">
    <!-- Generator: Sketch 3.7.1 (28215) - http://www.bohemiancoding.com/sketch -->
    <title>CircleFilledClose</title>
    <desc>Created with Sketch.</desc>
    <defs></defs>
    <g id="Page-1" stroke="none" stroke-width="1" fill="none" fill-rule="evenodd">
        <g id="Icons" transform="translate(-508.000000, -882.000000)" fill="#2E4063">
            <path d="M526.828427,898 L530.363345,894.465082 C530.756666,894.071761 530.751519,893.437811 530.357336,893.043628 L528.956372,891.642664 C528.556139,891.24243 527.925782,891.245791 527.534918,891.636655 L524,895.171573 L520.465082,891.636655 C520.071761,891.243334 519.437811,891.248481 519.043628,891.642664 L517.642664,893.043628 C517.24243,893.443861 517.245791,894.074218 517.636655,894.465082 L521.171573,898 L517.636655,901.534918 C517.243334,901.928239 517.248481,902.562189 517.642664,902.956372 L519.043628,904.357336 C519.443861,904.75757 520.074218,904.754209 520.465082,904.363345 L524,900.828427 L527.534918,904.363345 C527.928239,904.756666 528.562189,904.751519 528.956372,904.357336 L530.357336,902.956372 C530.75757,902.556139 530.754209,901.925782 530.363345,901.534918 L526.828427,898 L526.828427,898 Z M524,911 C531.179702,911 537,905.179702 537,898 C537,890.820298 531.179702,885 524,885 C516.820298,885 511,890.820298 511,898 C511,905.179702 516.820298,911 524,911 L524,911 Z" id="CircleFilledClose"></path>
        </g>
    </g>
</svg>