<?xml version="1.0" encoding="UTF-8" standalone="no"?>
<svg width="32px" height="32px" viewBox="0 0 32 32" version="1.1" xmlns="http://www.w3.org/2000/svg" xmlns:xlink="http://www.w3.org/1999/xlink">
    <!-- Generator: Sketch 3.7.1 (28215) - http://www.bohemiancoding.com/sketch -->
    <title>Clock</title>
    <desc>Created with Sketch.</desc>
    <defs></defs>
    <g id="Page-1" stroke="none" stroke-width="1" fill="none" fill-rule="evenodd">
        <g id="Icons" transform="translate(-248.000000, -934.000000)" fill="#2E4063">
            <path d="M264,963 C271.179702,963 277,957.179702 277,950 C277,942.820298 271.179702,937 264,937 C256.820298,937 251,942.820298 251,950 C251,957.179702 256.820298,963 264,963 L264,963 Z M264.322354,941.109985 C263.527554,941.109985 263.354453,941.732294 263.354453,941.732294 L262.870503,949.474283 C262.870503,949.474283 260.674441,951.325973 259.509059,952.491355 C259.509059,952.491355 259.044003,953.129511 259.501135,953.707936 C259.957657,954.28636 260.589719,954.070594 260.589719,954.070594 C262.132997,953.277622 264.572253,951.705088 265.510288,951.092531 C265.748606,950.936496 265.883918,950.664655 265.866242,950.380014 L265.324388,941.749361 C265.324388,941.749361 265.117155,941.109985 264.322354,941.109985 L264.322354,941.109985 Z" id="Clock"></path>
        </g>
    </g>
</svg>