<?xml version="1.0" encoding="UTF-8" standalone="no"?>
<svg width="32px" height="32px" viewBox="0 0 32 32" version="1.1" xmlns="http://www.w3.org/2000/svg" xmlns:xlink="http://www.w3.org/1999/xlink">
    <!-- Generator: Sketch 3.7.1 (28215) - http://www.bohemiancoding.com/sketch -->
    <title>Close</title>
    <desc>Created with Sketch.</desc>
    <defs></defs>
    <g id="Page-1" stroke="none" stroke-width="1" fill="none" fill-rule="evenodd">
        <g id="Icons" transform="translate(-300.000000, -934.000000)" fill="#2E4063">
            <path d="M318.901538,950.073111 L323.857082,945.117567 C324.236443,944.738206 324.238844,944.096708 323.844661,943.702525 L322.443697,942.301561 C322.043463,941.901328 321.415978,941.901817 321.028655,942.28914 L316.073111,947.244684 L311.117567,942.28914 C310.738206,941.909779 310.096708,941.907378 309.702525,942.301561 L308.301561,943.702525 C307.901328,944.102759 307.901817,944.730244 308.28914,945.117567 L313.244684,950.073111 L308.28914,955.028655 C307.909779,955.408016 307.907378,956.049514 308.301561,956.443697 L309.702525,957.844661 C310.102759,958.244894 310.730244,958.244405 311.117567,957.857082 L316.073111,952.901538 L321.028655,957.857082 C321.408016,958.236443 322.049514,958.238844 322.443697,957.844661 L323.844661,956.443697 C324.244894,956.043463 324.244405,955.415978 323.857082,955.028655 L318.901538,950.073111 L318.901538,950.073111 Z" id="Close"></path>
        </g>
    </g>
</svg>