<?xml version="1.0" encoding="UTF-8" standalone="no"?>
<svg width="32px" height="32px" viewBox="0 0 32 32" version="1.1" xmlns="http://www.w3.org/2000/svg" xmlns:xlink="http://www.w3.org/1999/xlink">
    <!-- Generator: Sketch 3.7.1 (28215) - http://www.bohemiancoding.com/sketch -->
    <title>ColorPalette</title>
    <desc>Created with Sketch.</desc>
    <defs></defs>
    <g id="Page-1" stroke="none" stroke-width="1" fill="none" fill-rule="evenodd">
        <g id="Icons" transform="translate(-404.000000, -986.000000)" fill="#2E4063">
            <path d="M425.62,1000.22086 C425.62,998.96721 426.639,997.950114 427.895,997.950114 C429.151,997.950114 430.17,998.96721 430.17,1000.22086 C430.17,1001.47452 429.151,1002.49161 427.895,1002.49161 C426.639,1002.49161 425.62,1001.47452 425.62,1000.22086 L425.62,1000.22086 Z M422.275,996.938009 C421.019,996.938009 420,995.920914 420,994.667261 C420,993.41261 421.019,992.396513 422.275,992.396513 C423.532,992.396513 424.55,993.41261 424.55,994.667261 C424.55,995.920914 423.532,996.938009 422.275,996.938009 M414.57,998.890354 C413.314,998.890354 412.295,997.873258 412.295,996.619605 C412.295,995.364955 413.314,994.348857 414.57,994.348857 C415.827,994.348857 416.845,995.364955 416.845,996.619605 C416.845,997.873258 415.827,998.890354 414.57,998.890354 M412.295,1006.38432 C411.039,1006.38432 410.02,1005.36723 410.02,1004.11357 C410.02,1002.85992 411.039,1001.84283 412.295,1001.84283 C413.552,1001.84283 414.57,1002.85992 414.57,1004.11357 C414.57,1005.36723 413.552,1006.38432 412.295,1006.38432 M420,990 C412.82,990 407,995.437818 407,1002.23309 C407,1009.02837 412.855,1013.99906 420.035,1013.99906 C420.035,1013.99906 422.275,1014.0879 423.157,1012.53481 C423.586,1011.09051 423.136,1010.34491 422.233,1009.4416 C420.758,1007.96836 421.539,1005.66766 424.109,1005.66766 L429.065,1005.66766 C431.467,1005.66766 432.999,1004.75238 432.999,1002.37483 C433,995.579553 427.179,990 420,990" id="ColorPalette"></path>
        </g>
    </g>
</svg>