<?xml version="1.0" encoding="UTF-8" standalone="no"?>
<svg width="32px" height="32px" viewBox="0 0 32 32" version="1.1" xmlns="http://www.w3.org/2000/svg" xmlns:xlink="http://www.w3.org/1999/xlink">
    <!-- Generator: Sketch 3.7.1 (28215) - http://www.bohemiancoding.com/sketch -->
    <title>InboxIn</title>
    <desc>Created with Sketch.</desc>
    <defs></defs>
    <g id="Page-1" stroke="none" stroke-width="1" fill="none" fill-rule="evenodd">
        <g id="Icons" transform="translate(-456.000000, -1402.000000)" fill="#2E4063">
            <path d="M477,1410 L478.999128,1410 C479.555369,1410 480.094447,1410.44075 480.210954,1410.98445 L483,1424 L483,1429 C483,1429.552 482.554,1430 482,1430 L462,1430 C461.448,1430 461,1429.552 461,1429 L461,1424 L463.789046,1410.98445 C463.906926,1410.43434 464.448106,1410 465.000872,1410 L467,1410 L467,1412 L465.901331,1412 C465.629105,1412 465.356541,1412.21727 465.302939,1412.48528 L463.097055,1423.51472 C463.0458,1423.771 463.226172,1424 463.505169,1424 L467.258,1424 C467.258,1424.886 467.982,1425.61 468.868,1425.61 L475.134,1425.61 C476.02,1425.61 476.744,1424.886 476.744,1424 L480.495068,1424 C480.771179,1424 480.956547,1423.78273 480.902945,1423.51472 L478.697061,1412.48528 C478.645806,1412.229 478.37555,1412 478.098669,1412 L477,1412 L477,1410 L477,1410 Z M474,1406.50965 C474,1406.22765 473.774045,1406 473.495316,1406 L470.504684,1406 C470.214035,1406 470,1406.22818 470,1406.50965 L470,1416.01528 C468.504967,1416.05438 468.21026,1416.16724 468.033322,1416.3391 C467.604316,1416.75559 471.4496,1423 471.994584,1423 C472.539342,1423 476.456915,1416.82533 475.955846,1416.3391 C475.752078,1416.1412 475.473714,1416.03539 474,1416.00754 L474,1406.50965 L474,1406.50965 Z" id="InboxIn"></path>
        </g>
    </g>
</svg>