<?xml version="1.0" encoding="UTF-8" standalone="no"?>
<svg width="32px" height="32px" viewBox="0 0 32 32" version="1.1" xmlns="http://www.w3.org/2000/svg" xmlns:xlink="http://www.w3.org/1999/xlink">
    <!-- Generator: Sketch 3.7.1 (28215) - http://www.bohemiancoding.com/sketch -->
    <title>Info</title>
    <desc>Created with Sketch.</desc>
    <defs></defs>
    <g id="Page-1" stroke="none" stroke-width="1" fill="none" fill-rule="evenodd">
        <g id="Icons" transform="translate(-40.000000, -1454.000000)" fill="#2E4063">
            <path d="M55.99952,1458 C49.37216,1458 44,1463.37264 44,1470 C44,1476.62784 49.37216,1482 55.99952,1482 C62.62736,1482 68,1476.62784 68,1470 C68,1463.37264 62.62736,1458 55.99952,1458 L55.99952,1458 Z M54.5838771,1478 C54.0294521,1478 53.6417113,1477.55886 53.7192366,1477.00466 L54.920767,1468.41534 C54.9976643,1467.86563 55.5024361,1467.42 56.0638771,1467.42 L56.5961266,1467.42 C57.1505516,1467.42 57.5382923,1467.86114 57.460767,1468.41534 L56.2592366,1477.00466 C56.1823394,1477.55437 55.6775676,1478 55.1161266,1478 L54.5838771,1478 L54.5838771,1478 Z M58.0499945,1462.45 C58.3099958,1462.71 58.4399945,1463.04666 58.4399945,1463.46 C58.4399945,1463.94 58.2733295,1464.34333 57.9399945,1464.67 C57.6066595,1464.99667 57.1933303,1465.16 56.6999945,1465.16 C56.2599923,1465.16 55.9099958,1465.03 55.6499945,1464.77 C55.3899932,1464.51 55.2599945,1464.17334 55.2599945,1463.76 C55.2599945,1463.28 55.4266595,1462.87667 55.7599945,1462.55 C56.0933295,1462.22333 56.5066587,1462.06 56.9999945,1462.06 C57.4399967,1462.06 57.7899932,1462.19 58.0499945,1462.45 L58.0499945,1462.45 Z" id="Info"></path>
        </g>
    </g>
</svg>