<?xml version="1.0" encoding="UTF-8" standalone="no"?>
<svg width="32px" height="32px" viewBox="0 0 32 32" version="1.1" xmlns="http://www.w3.org/2000/svg" xmlns:xlink="http://www.w3.org/1999/xlink">
    <!-- Generator: Sketch 3.7.1 (28215) - http://www.bohemiancoding.com/sketch -->
    <title>List</title>
    <desc>Created with Sketch.</desc>
    <defs></defs>
    <g id="Page-1" stroke="none" stroke-width="1" fill="none" fill-rule="evenodd">
        <g id="Icons" transform="translate(-456.000000, -1504.000000)" fill="#2E4063">
            <path d="M467,1513 C467,1512.44772 467.444631,1512 468.000872,1512 L481.999128,1512 C482.551894,1512 483,1512.44386 483,1513 C483,1513.55228 482.555369,1514 481.999128,1514 L468.000872,1514 C467.448106,1514 467,1513.55614 467,1513 L467,1513 Z M467,1527 C467,1526.44772 467.444631,1526 468.000872,1526 L481.999128,1526 C482.551894,1526 483,1526.44386 483,1527 C483,1527.55228 482.555369,1528 481.999128,1528 L468.000872,1528 C467.448106,1528 467,1527.55614 467,1527 L467,1527 Z M467,1520 C467,1519.44772 467.444631,1519 468.000872,1519 L481.999128,1519 C482.551894,1519 483,1519.44386 483,1520 C483,1520.55228 482.555369,1521 481.999128,1521 L468.000872,1521 C467.448106,1521 467,1520.55614 467,1520 L467,1520 Z M463,1515 C464.104569,1515 465,1514.10457 465,1513 C465,1511.89543 464.104569,1511 463,1511 C461.895431,1511 461,1511.89543 461,1513 C461,1514.10457 461.895431,1515 463,1515 L463,1515 Z M463,1522 C464.104569,1522 465,1521.10457 465,1520 C465,1518.89543 464.104569,1518 463,1518 C461.895431,1518 461,1518.89543 461,1520 C461,1521.10457 461.895431,1522 463,1522 L463,1522 Z M463,1529 C464.104569,1529 465,1528.10457 465,1527 C465,1525.89543 464.104569,1525 463,1525 C461.895431,1525 461,1525.89543 461,1527 C461,1528.10457 461.895431,1529 463,1529 L463,1529 Z" id="List"></path>
        </g>
    </g>
</svg>