<?xml version="1.0" encoding="UTF-8" standalone="no"?>
<svg width="32px" height="32px" viewBox="0 0 32 32" version="1.1" xmlns="http://www.w3.org/2000/svg" xmlns:xlink="http://www.w3.org/1999/xlink">
    <!-- Generator: Sketch 3.7.1 (28215) - http://www.bohemiancoding.com/sketch -->
    <title>Menu</title>
    <desc>Created with Sketch.</desc>
    <defs></defs>
    <g id="Page-1" stroke="none" stroke-width="1" fill="none" fill-rule="evenodd">
        <g id="Icons" transform="translate(-508.000000, -1608.000000)" fill="#2E4063">
            <path d="M513,1616.50468 C513,1616.22595 513.217742,1616 513.500836,1616 L534.499164,1616 C534.775768,1616 535,1616.21404 535,1616.50468 L535,1617.49532 C535,1617.77405 534.782258,1618 534.499164,1618 L513.500836,1618 C513.224232,1618 513,1617.78596 513,1617.49532 L513,1616.50468 Z M513,1630.50468 C513,1630.22595 513.217742,1630 513.500836,1630 L534.499164,1630 C534.775768,1630 535,1630.21404 535,1630.50468 L535,1631.49532 C535,1631.77405 534.782258,1632 534.499164,1632 L513.500836,1632 C513.224232,1632 513,1631.78596 513,1631.49532 L513,1630.50468 Z M513,1623.50468 C513,1623.22595 513.217742,1623 513.500836,1623 L534.499164,1623 C534.775768,1623 535,1623.21404 535,1623.50468 L535,1624.49532 C535,1624.77405 534.782258,1625 534.499164,1625 L513.500836,1625 C513.224232,1625 513,1624.78596 513,1624.49532 L513,1623.50468 Z" id="Menu"></path>
        </g>
    </g>
</svg>