<?xml version="1.0" encoding="UTF-8" standalone="no"?>
<svg width="32px" height="32px" viewBox="0 0 32 32" version="1.1" xmlns="http://www.w3.org/2000/svg" xmlns:xlink="http://www.w3.org/1999/xlink">
    <!-- Generator: Sketch 3.7.1 (28215) - http://www.bohemiancoding.com/sketch -->
    <title>Present</title>
    <desc>Created with Sketch.</desc>
    <defs></defs>
    <g id="Page-1" stroke="none" stroke-width="1" fill="none" fill-rule="evenodd">
        <g id="Icons" transform="translate(-248.000000, -1868.000000)" fill="#2E4063">
            <path d="M263,1886 L256,1886 L256,1888 L263,1888 L263,1896 L265,1896 L265,1888 L272,1888 L272,1886 L265,1886 L265,1879 L263,1879 L263,1886 L263,1886 Z M272,1882 L272,1894.99913 C272,1895.55189 271.555369,1896 270.999128,1896 L257.000872,1896 C256.448106,1896 256,1895.55537 256,1894.99913 L256,1882 L253.500836,1882 C253.224232,1882 253,1881.78425 253,1881.50461 L253,1879.49539 C253,1879.22179 253.217742,1879 253.500836,1879 L274.499164,1879 C274.775768,1879 275,1879.21575 275,1879.49539 L275,1881.50461 C275,1881.77821 274.782258,1882 274.499164,1882 L272,1882 L272,1882 Z M257,1875.5 C257,1873.567 258.570937,1872 260.5,1872 C262.432997,1872 264,1873.57094 264,1875.5 L264,1879 L260.5,1879 C258.567003,1879 257,1877.42906 257,1875.5 L257,1875.5 Z M260.5,1877.5 L262.5,1877.5 L262.5,1875.5 C262.5,1874.39774 261.602951,1873.5 260.5,1873.5 C259.397745,1873.5 258.5,1874.39705 258.5,1875.5 C258.5,1876.60226 259.397049,1877.5 260.5,1877.5 L260.5,1877.5 Z M264,1875.5 C264,1873.567 265.570937,1872 267.5,1872 C269.432997,1872 271,1873.57094 271,1875.5 C271,1877.433 269.429063,1879 267.5,1879 L264,1879 L264,1875.5 L264,1875.5 Z M265.5,1877.5 L267.5,1877.5 C268.602255,1877.5 269.5,1876.60295 269.5,1875.5 C269.5,1874.39774 268.602951,1873.5 267.5,1873.5 C266.397745,1873.5 265.5,1874.39705 265.5,1875.5 L265.5,1877.5 L265.5,1877.5 Z" id="Present"></path>
        </g>
    </g>
</svg>