<?xml version="1.0" encoding="UTF-8" standalone="no"?>
<svg width="32px" height="32px" viewBox="0 0 32 32" version="1.1" xmlns="http://www.w3.org/2000/svg" xmlns:xlink="http://www.w3.org/1999/xlink">
    <!-- Generator: Sketch 3.7.1 (28215) - http://www.bohemiancoding.com/sketch -->
    <title>Question</title>
    <desc>Created with Sketch.</desc>
    <defs></defs>
    <g id="Page-1" stroke="none" stroke-width="1" fill="none" fill-rule="evenodd">
        <g id="Icons" transform="translate(-40.000000, -1920.000000)" fill="#2E4063">
            <path d="M58.4144,1935.82192 C58.01792,1936.04416 57.6848,1936.24192 57.41504,1936.41664 C57.14528,1936.59136 56.93168,1936.7896 56.77328,1937.01136 C56.47136,1937.40784 56.32112,1937.97904 56.32112,1938.724 L56.32112,1939.35827 C56.32112,1939.5204 56.1876641,1939.65184 56.0146922,1939.65184 L54.7718678,1939.65184 C54.6026324,1939.65184 54.46544,1939.52059 54.46544,1939.35935 L54.46544,1938.58144 C54.46544,1937.58256 54.632,1936.81744 54.96464,1936.2856 C55.29824,1935.75472 55.90064,1935.25072 56.77328,1934.77504 C57.64496,1934.29888 58.232,1933.88272 58.53344,1933.52608 C58.8344,1933.16896 58.98512,1932.68944 58.98512,1932.08656 C58.98512,1931.48416 58.73552,1930.98016 58.23584,1930.57552 C57.73664,1930.17136 57.04256,1929.96928 56.15408,1929.96928 C54.408953,1929.96928 53.3651185,1930.61496 53.0229757,1931.90513 C53.0013011,1931.98686 53.0229757,1931.90513 53.0229757,1931.90513 C52.9917298,1932.04483 52.8352899,1932.15808 52.6715528,1932.15808 L51.2630072,1932.15808 C51.1001676,1932.15808 50.9826473,1932.03339 51.0051393,1931.8608 C51.0051393,1931.8608 50.9927784,1931.93571 51.0102036,1931.82767 C51.1749882,1930.80601 51.644772,1929.97211 52.4192,1929.32704 C53.276,1928.61328 54.47744,1928.25616 56.02352,1928.25616 C57.5696,1928.25616 58.7912,1928.6368 59.68736,1929.39856 C60.58352,1930.15984 61.03136,1931.0872 61.03136,1932.1816 C61.03136,1933.00672 60.82544,1933.69216 60.41312,1934.23984 C60.00032,1934.78704 59.33408,1935.31456 58.4144,1935.82192 L58.4144,1935.82192 Z M56.43968,1943.3632 C56.16992,1943.61712 55.82912,1943.74432 55.4168,1943.74432 C55.00448,1943.74432 54.67136,1943.61712 54.41792,1943.3632 C54.164,1943.10976 54.03728,1942.79632 54.03728,1942.42384 C54.03728,1942.05136 54.164,1941.73024 54.41792,1941.46 C54.67136,1941.19072 55.00448,1941.05536 55.4168,1941.05536 C55.82912,1941.05536 56.16992,1941.19072 56.43968,1941.46 C56.70944,1941.73024 56.84432,1942.05136 56.84432,1942.42384 C56.84432,1942.79632 56.70944,1943.10976 56.43968,1943.3632 M55.99952,1924 C49.37216,1924 44,1929.37264 44,1936 C44,1942.62784 49.37216,1948 55.99952,1948 C62.62736,1948 68,1942.62784 68,1936 C68,1929.37264 62.62736,1924 55.99952,1924" id="Question"></path>
        </g>
    </g>
</svg>