<?xml version="1.0" encoding="UTF-8" standalone="no"?>
<svg width="32px" height="32px" viewBox="0 0 32 32" version="1.1" xmlns="http://www.w3.org/2000/svg" xmlns:xlink="http://www.w3.org/1999/xlink">
    <!-- Generator: Sketch 3.7.1 (28215) - http://www.bohemiancoding.com/sketch -->
    <title>Save</title>
    <desc>Created with Sketch.</desc>
    <defs></defs>
    <g id="Page-1" stroke="none" stroke-width="1" fill="none" fill-rule="evenodd">
        <g id="Icons" transform="translate(-92.000000, -2024.000000)" fill="#2E4063">
            <path d="M97,2044.5001 L97,2049.0019 C97,2050.11329 97.8914705,2051 98.991155,2051 L117.008845,2051 C118.110326,2051 119,2050.10542 119,2049.0019 L119,2044.5001 L119,2042.99981 C119,2042.44372 118.552285,2042 118,2042 C117.443865,2042 117,2042.44763 117,2042.99981 L117,2044.5001 L117,2048.00297 C117,2048.55361 116.555054,2049 116.006602,2049 L99.9933977,2049 C99.4447593,2049 99,2048.54696 99,2048.00297 L99,2044.5001 L99,2042.99981 C99,2042.44372 98.5522847,2042 98,2042 C97.4438648,2042 97,2042.44763 97,2042.99981 L97,2044.5001 L97,2044.5001 Z M109,2029.50965 C109,2029.22765 108.774045,2029 108.495316,2029 L107.504684,2029 C107.214035,2029 107,2029.22818 107,2029.50965 L107,2040.01528 C105.504967,2040.05438 104.21026,2040.16724 104.033322,2040.3391 C103.604316,2040.75559 107.4496,2047 107.994584,2047 C108.539342,2047 112.456915,2040.82533 111.955846,2040.3391 C111.752078,2040.1412 110.473714,2040.03539 109,2040.00754 L109,2029.50965 L109,2029.50965 Z" id="Save"></path>
        </g>
    </g>
</svg>