<?xml version="1.0" encoding="UTF-8" standalone="no"?>
<svg width="32px" height="32px" viewBox="0 0 32 32" version="1.1" xmlns="http://www.w3.org/2000/svg" xmlns:xlink="http://www.w3.org/1999/xlink">
    <!-- Generator: Sketch 3.7.1 (28215) - http://www.bohemiancoding.com/sketch -->
    <title>SendFeedback</title>
    <desc>Created with Sketch.</desc>
    <defs></defs>
    <g id="Page-1" stroke="none" stroke-width="1" fill="none" fill-rule="evenodd">
        <g id="Icons" transform="translate(-300.000000, -2024.000000)" fill="#2E4063">
            <path d="M315.99974,2029 C308.819555,2029 303,2033.35386 303,2038.72681 C303,2041.52168 304.576151,2044.04167 307.10007,2045.81589 C307.679117,2049.23985 305.250754,2050.51515 305.59974,2050.86366 C306.076481,2051.3408 310.544232,2050.59398 312.885349,2048.17304 C313.884011,2048.35611 314.926296,2048.45362 315.99974,2048.45362 C323.179926,2048.45362 329,2044.09872 329,2038.72681 C329,2033.35386 323.179926,2029 315.99974,2029 L315.99974,2029 Z M316.541082,2040.67867 C316.059025,2041.10263 315.514443,2041.1169 315.016636,2040.67867 C314.518351,2040.24044 313.508417,2033.37568 314.282095,2032.69525 C315.055296,2032.01482 316.487149,2032.00139 317.2761,2032.69525 C318.064574,2033.38911 317.02314,2040.25471 316.541082,2040.67867 L316.541082,2040.67867 Z M315.779545,2045.17988 C314.994071,2045.17988 314.455611,2044.59528 314.455611,2043.83628 C314.455611,2043.05605 315.016527,2042.49268 315.779545,2042.49268 C316.587474,2042.49268 317.103957,2043.05605 317.103957,2043.83628 C317.103957,2044.59528 316.587474,2045.17988 315.779545,2045.17988 L315.779545,2045.17988 Z" id="SendFeedback"></path>
        </g>
    </g>
</svg>