<?xml version="1.0" encoding="UTF-8" standalone="no"?>
<svg width="32px" height="32px" viewBox="0 0 32 32" version="1.1" xmlns="http://www.w3.org/2000/svg" xmlns:xlink="http://www.w3.org/1999/xlink">
    <!-- Generator: Sketch 3.7.1 (28215) - http://www.bohemiancoding.com/sketch -->
    <title>Send</title>
    <desc>Created with Sketch.</desc>
    <defs></defs>
    <g id="Page-1" stroke="none" stroke-width="1" fill="none" fill-rule="evenodd">
        <g id="Icons" transform="translate(-248.000000, -2024.000000)" fill="#2E4063">
            <path d="M258.565331,2046.85061 C258.384772,2047.05242 258.2384,2047.43462 258.2384,2047.71458 L258.2384,2050.27689 C258.2384,2050.83197 258.508197,2050.9194 258.835316,2050.47982 L260.006446,2048.90604 C260.169746,2048.68659 260.493474,2048.62855 260.72605,2048.77422 L265.625065,2051.84271 C266.091548,2052.13489 266.627077,2051.95273 266.822591,2051.43214 L275.408075,2028.57177 C275.602967,2028.05284 275.380472,2027.86647 274.91305,2028.15431 L252.38583,2042.0266 C251.917544,2042.31497 251.908609,2042.81439 252.343287,2043.1259 L256.2878,2045.95274 C256.511172,2046.11282 256.849689,2046.09336 257.05438,2045.89934 L271.874499,2031.85195 C272.274811,2031.47251 272.299379,2031.50016 271.925932,2031.91756 L258.565331,2046.85061 Z" id="Send"></path>
        </g>
    </g>
</svg>