<?xml version="1.0" encoding="UTF-8" standalone="no"?>
<svg width="32px" height="32px" viewBox="0 0 32 32" version="1.1" xmlns="http://www.w3.org/2000/svg" xmlns:xlink="http://www.w3.org/1999/xlink">
    <!-- Generator: Sketch 3.7.1 (28215) - http://www.bohemiancoding.com/sketch -->
    <title>Settings</title>
    <desc>Created with Sketch.</desc>
    <defs></defs>
    <g id="Page-1" stroke="none" stroke-width="1" fill="none" fill-rule="evenodd">
        <g id="Icons" transform="translate(-404.000000, -2024.000000)" fill="#2E4063">
            <path d="M425.054396,2048.63048 C424.423419,2049.00081 423.748227,2049.30392 423.038654,2049.52997 C422.661384,2051.19942 422.316906,2052.05946 422.316906,2052.05946 C422.141884,2052.57891 421.556647,2053 420.990631,2053 L419.009369,2053 C418.45191,2053 417.895287,2052.56409 417.770575,2052.02748 C417.770575,2052.02748 417.531529,2051.06858 417.229106,2049.61113 C416.594784,2049.42859 415.986335,2049.18494 415.410539,2048.88699 C413.962929,2049.80097 413.110972,2050.16563 413.110972,2050.16563 C412.61991,2050.40917 411.908327,2050.2931 411.508094,2049.89287 L410.10713,2048.49191 C409.712947,2048.09772 409.627588,2047.3959 409.918846,2046.92827 C409.918846,2046.92827 410.428051,2046.08088 411.245048,2044.83607 C410.930833,2044.26845 410.670217,2043.66703 410.47003,2043.03865 C408.800579,2042.66138 407.940537,2042.31691 407.940537,2042.31691 C407.421093,2042.14188 407,2041.55665 407,2040.99063 L407,2039.00937 C407,2038.45191 407.435907,2037.89529 407.972521,2037.77057 C407.972521,2037.77057 408.93142,2037.53153 410.388868,2037.22911 C410.571414,2036.59478 410.815056,2035.98633 411.113015,2035.41054 C410.19903,2033.96293 409.834372,2033.11097 409.834372,2033.11097 C409.590829,2032.61991 409.706896,2031.90833 410.10713,2031.50809 L411.508094,2030.10713 C411.902277,2029.71295 412.604101,2029.62759 413.07173,2029.91885 C413.07173,2029.91885 413.919124,2030.42805 415.163926,2031.24505 C415.841633,2030.8699 416.56751,2030.57115 417.329934,2030.36043 C417.600673,2028.93648 417.80459,2027.96157 417.80459,2027.96157 C417.912512,2027.43051 418.443353,2027 419.009369,2027 L420.990631,2027 C421.54809,2027 422.071181,2027.44634 422.156937,2027.98497 C422.156937,2027.98497 422.310293,2028.94489 422.528533,2030.32243 C423.377319,2030.54358 424.182215,2030.87345 424.92746,2031.29626 C426.126172,2030.48055 426.960067,2029.93515 426.960067,2029.93515 C427.411895,2029.63595 428.091673,2029.7069 428.491906,2030.10713 L429.89287,2031.50809 C430.287053,2031.90228 430.341323,2032.58777 430.021094,2033.02927 C430.021094,2033.02927 429.450518,2033.81682 428.630483,2034.9456 C429.064411,2035.68495 429.406048,2036.485 429.639573,2037.32993 C431.063518,2037.60067 432.038431,2037.80459 432.038431,2037.80459 C432.569491,2037.91251 433,2038.44335 433,2039.00937 L433,2040.99063 C433,2041.54809 432.553658,2042.07118 432.015031,2042.15694 C432.015031,2042.15694 431.055107,2042.31029 429.677567,2042.52853 C429.456415,2043.37732 429.126551,2044.18222 428.703736,2044.92746 C429.519449,2046.12617 430.064845,2046.96007 430.064845,2046.96007 C430.364049,2047.4119 430.293104,2048.09167 429.89287,2048.49191 L428.491906,2049.89287 C428.097723,2050.28705 427.412231,2050.34132 426.970725,2050.02109 C426.970725,2050.02109 426.183175,2049.45052 425.054396,2048.63048 L425.054396,2048.63048 Z M420,2044 C422.209139,2044 424,2042.20914 424,2040 C424,2037.79086 422.209139,2036 420,2036 C417.790861,2036 416,2037.79086 416,2040 C416,2042.20914 417.790861,2044 420,2044 L420,2044 Z" id="Settings"></path>
        </g>
    </g>
</svg>