<?xml version="1.0" encoding="UTF-8" standalone="no"?>
<svg width="32px" height="32px" viewBox="0 0 32 32" version="1.1" xmlns="http://www.w3.org/2000/svg" xmlns:xlink="http://www.w3.org/1999/xlink">
    <!-- Generator: Sketch 3.7.1 (28215) - http://www.bohemiancoding.com/sketch -->
    <title>Support</title>
    <desc>Created with Sketch.</desc>
    <defs></defs>
    <g id="Page-1" stroke="none" stroke-width="1" fill="none" fill-rule="evenodd">
        <g id="Icons" transform="translate(-456.000000, -2180.000000)" fill="#2E4063">
            <path d="M475.531064,2205.35873 C478.213438,2204.34615 480.346146,2202.21344 481.358725,2199.53106 L476.516581,2198.14759 C476.023082,2199.18362 475.183617,2200.02308 474.147595,2200.51658 L475.531064,2205.35873 L475.531064,2205.35873 Z M468.468936,2205.35873 C465.786562,2204.34615 463.653854,2202.21344 462.641275,2199.53106 L467.483419,2198.14759 C467.976918,2199.18362 468.816383,2200.02308 469.852405,2200.51658 L468.468936,2205.35873 L468.468936,2205.35873 Z M481.358725,2192.46894 C480.346146,2189.78656 478.213438,2187.65385 475.531064,2186.64127 L474.147595,2191.48342 C475.183617,2191.97692 476.023082,2192.81638 476.516581,2193.85241 L481.358725,2192.46894 L481.358725,2192.46894 Z M462.641275,2192.46894 C463.653854,2189.78656 465.786562,2187.65385 468.468936,2186.64127 L469.852405,2191.48342 C468.816383,2191.97692 467.976918,2192.81638 467.483419,2193.85241 L462.641275,2192.46894 L462.641275,2192.46894 Z M472,2208 C478.627417,2208 484,2202.62742 484,2196 C484,2189.37258 478.627417,2184 472,2184 C465.372583,2184 460,2189.37258 460,2196 C460,2202.62742 465.372583,2208 472,2208 L472,2208 Z M472,2199 C473.656854,2199 475,2197.65685 475,2196 C475,2194.34315 473.656854,2193 472,2193 C470.343146,2193 469,2194.34315 469,2196 C469,2197.65685 470.343146,2199 472,2199 L472,2199 Z" id="Support"></path>
        </g>
    </g>
</svg>